<?xml version="1.0" encoding="UTF-8" standalone="no"?>
<!DOCTYPE svg PUBLIC "-//W3C//DTD SVG 1.1//EN"
 "http://www.w3.org/Graphics/SVG/1.1/DTD/svg11.dtd">
<!-- Generated by graphviz version 2.40.1 (20161225.0304)
 -->
<!-- Title: dependencies Pages: 1 -->
<svg width="596pt" height="290pt"
 viewBox="0.00 0.00 596.00 290.00" xmlns="http://www.w3.org/2000/svg" xmlns:xlink="http://www.w3.org/1999/xlink">
<g id="graph0" class="graph" transform="scale(1 1) rotate(0) translate(4 286)">
<title>dependencies</title>
<polygon fill="#ffffff" stroke="transparent" points="-4,4 -4,-286 592,-286 592,4 -4,4"/>
<text text-anchor="start" x="273.0091" y="-42.4" font-family="sans-serif" font-weight="bold" font-size="14.00" fill="#000000">Legend</text>
<polygon fill="#ffffb3" stroke="transparent" points="60,-10 60,-30 80,-30 80,-10 60,-10"/>
<text text-anchor="start" x="83.629" y="-15.4" font-family="sans-serif" font-size="14.00" fill="#000000"> &#160;Declarations</text>
<polygon fill="#8dd3c7" stroke="transparent" points="173,-10 173,-30 193,-30 193,-10 173,-10"/>
<text text-anchor="start" x="196.7251" y="-15.4" font-family="sans-serif" font-size="14.00" fill="#000000"> &#160;Module</text>
<polygon fill="#80b1d3" stroke="transparent" points="259,-10 259,-30 279,-30 279,-10 259,-10"/>
<text text-anchor="start" x="282.7812" y="-15.4" font-family="sans-serif" font-size="14.00" fill="#000000"> &#160;Bootstrap</text>
<polygon fill="#fdb462" stroke="transparent" points="356,-10 356,-30 376,-30 376,-10 356,-10"/>
<text text-anchor="start" x="379.6732" y="-15.4" font-family="sans-serif" font-size="14.00" fill="#000000"> &#160;Providers</text>
<polygon fill="#fb8072" stroke="transparent" points="452,-10 452,-30 472,-30 472,-10 452,-10"/>
<text text-anchor="start" x="475.7258" y="-15.4" font-family="sans-serif" font-size="14.00" fill="#000000"> &#160;Exports</text>
<g id="clust1" class="cluster">
<title>cluster_AppModule</title>
<polygon fill="none" stroke="#000000" stroke-dasharray="1,5" points="8,-70 8,-274 268,-274 268,-70 8,-70"/>
</g>
<g id="clust2" class="cluster">
<title>cluster_AppModule_declarations</title>
<polygon fill="none" stroke="#000000" points="16,-78 16,-130 138,-130 138,-78 16,-78"/>
</g>
<g id="clust4" class="cluster">
<title>cluster_AppModule_imports</title>
<polygon fill="none" stroke="#000000" points="146,-78 146,-130 260,-130 260,-78 146,-78"/>
</g>
<g id="clust6" class="cluster">
<title>cluster_AppModule_bootstrap</title>
<polygon fill="none" stroke="#000000" points="76,-214 76,-266 200,-266 200,-214 76,-214"/>
</g>
<g id="clust8" class="cluster">
<title>cluster_SharedModule</title>
<polygon fill="none" stroke="#000000" stroke-dasharray="1,5" points="276,-138 276,-206 580,-206 580,-138 276,-138"/>
</g>
<g id="clust9" class="cluster">
<title>cluster_SharedModule_declarations</title>
<polygon fill="none" stroke="#000000" points="434,-146 434,-198 572,-198 572,-146 434,-146"/>
</g>
<g id="clust12" class="cluster">
<title>cluster_SharedModule_exports</title>
<polygon fill="none" stroke="#000000" points="284,-146 284,-198 426,-198 426,-146 284,-146"/>
</g>
<!-- AppComponent -->
<g id="node1" class="node">
<title>AppComponent</title>
<polygon fill="#ffffb3" stroke="#000000" points="129.9399,-122 24.0601,-122 24.0601,-86 129.9399,-86 129.9399,-122"/>
<text text-anchor="middle" x="77" y="-99.8" font-family="Times,serif" font-size="14.00" fill="#000000">AppComponent</text>
</g>
<!-- AppModule -->
<g id="node2" class="node">
<title>AppModule</title>
<polygon fill="#8dd3c7" stroke="#000000" points="179.6571,-190 176.6571,-194 155.6571,-194 152.6571,-190 96.3429,-190 96.3429,-154 179.6571,-154 179.6571,-190"/>
<text text-anchor="middle" x="138" y="-167.8" font-family="Times,serif" font-size="14.00" fill="#000000">AppModule</text>
</g>
<!-- AppComponent&#45;&gt;AppModule -->
<g id="edge1" class="edge">
<title>AppComponent&#45;&gt;AppModule</title>
<path fill="none" stroke="#000000" d="M112.9457,-122.2228C112.9457,-122.2228 112.9457,-143.7269 112.9457,-143.7269"/>
<polygon fill="#000000" stroke="#000000" points="109.4457,-143.7269 112.9457,-153.7269 116.4457,-143.727 109.4457,-143.7269"/>
</g>
<!-- AppComponent  -->
<g id="node4" class="node">
<title>AppComponent </title>
<polygon fill="#80b1d3" stroke="#000000" points="192.439,-258 83.561,-258 83.561,-222 192.439,-222 192.439,-258"/>
<text text-anchor="middle" x="138" y="-235.8" font-family="Times,serif" font-size="14.00" fill="#000000">AppComponent </text>
</g>
<!-- AppModule&#45;&gt;AppComponent  -->
<g id="edge3" class="edge">
<title>AppModule&#45;&gt;AppComponent </title>
<path fill="none" stroke="#000000" stroke-dasharray="1,5" d="M138,-190.2228C138,-190.2228 138,-211.7269 138,-211.7269"/>
<polygon fill="#000000" stroke="#000000" points="134.5001,-211.7269 138,-221.7269 141.5001,-211.727 134.5001,-211.7269"/>
</g>
<!-- SharedModule -->
<g id="node3" class="node">
<title>SharedModule</title>
<polygon fill="#8dd3c7" stroke="#000000" points="252.4231,-122 249.4231,-126 228.4231,-126 225.4231,-122 153.5769,-122 153.5769,-86 252.4231,-86 252.4231,-122"/>
<text text-anchor="middle" x="203" y="-99.8" font-family="Times,serif" font-size="14.00" fill="#000000">SharedModule</text>
</g>
<!-- SharedModule&#45;&gt;AppModule -->
<g id="edge2" class="edge">
<title>SharedModule&#45;&gt;AppModule</title>
<path fill="none" stroke="#000000" d="M166.8086,-122.2228C166.8086,-122.2228 166.8086,-143.7269 166.8086,-143.7269"/>
<polygon fill="#000000" stroke="#000000" points="163.3086,-143.7269 166.8086,-153.7269 170.3086,-143.727 163.3086,-143.7269"/>
</g>
<!-- BannerComponent  -->
<g id="node6" class="node">
<title>BannerComponent </title>
<polygon fill="#fb8072" stroke="#000000" points="417.7591,-190 292.2409,-190 292.2409,-154 417.7591,-154 417.7591,-190"/>
<text text-anchor="middle" x="355" y="-167.8" font-family="Times,serif" font-size="14.00" fill="#000000">BannerComponent </text>
</g>
<!-- SharedModule&#45;&gt;BannerComponent  -->
<g id="edge5" class="edge">
<title>SharedModule&#45;&gt;BannerComponent </title>
<path fill="none" stroke="#000000" stroke-dasharray="5,2" d="M222.3403,-122.2228C222.3403,-142.3652 222.3403,-172 222.3403,-172 222.3403,-172 282.1666,-172 282.1666,-172"/>
<polygon fill="#000000" stroke="#000000" points="282.1666,-175.5001 292.1666,-172 282.1665,-168.5001 282.1666,-175.5001"/>
</g>
<!-- BannerComponent -->
<g id="node5" class="node">
<title>BannerComponent</title>
<polygon fill="#ffffb3" stroke="#000000" points="563.759,-190 442.241,-190 442.241,-154 563.759,-154 563.759,-190"/>
<text text-anchor="middle" x="503" y="-167.8" font-family="Times,serif" font-size="14.00" fill="#000000">BannerComponent</text>
</g>
<!-- BannerComponent&#45;&gt;SharedModule -->
<g id="edge4" class="edge">
<title>BannerComponent&#45;&gt;SharedModule</title>
<path fill="none" stroke="#000000" d="M503,-153.7772C503,-133.6348 503,-104 503,-104 503,-104 262.5389,-104 262.5389,-104"/>
<polygon fill="#000000" stroke="#000000" points="262.5389,-100.5001 252.5389,-104 262.5389,-107.5001 262.5389,-100.5001"/>
</g>
</g>
</svg>
